<?xml version="1.0" encoding="utf-8"?>
<!-- Generator: Adobe Illustrator 16.0.4, SVG Export Plug-In . SVG Version: 6.00 Build 0)  -->
<!DOCTYPE svg PUBLIC "-//W3C//DTD SVG 1.1//EN" "http://www.w3.org/Graphics/SVG/1.1/DTD/svg11.dtd">
<svg version="1.1" id="Layer_1" xmlns="http://www.w3.org/2000/svg" xmlns:xlink="http://www.w3.org/1999/xlink" x="0px" y="0px"
	 width="762.663px" height="226px" viewBox="1 0 762.663 226" enable-background="new 1 0 762.663 226" xml:space="preserve">
<g>
	<path fill="#F6B73A" d="M114,225.993c-37.206,0-65.648-9.577-84.536-28.465S1,150.199,1,112.993s9.577-65.648,28.464-84.536
		S76.794-0.007,114-0.007s65.648,9.577,84.536,28.464S227,75.787,227,112.993s-9.577,65.647-28.464,84.535
		S151.206,225.993,114,225.993z M114,9.993c-69.309,0-103,33.691-103,103s33.691,103,103,103s103-33.691,103-103
		S183.309,9.993,114,9.993z"/>
</g>
<g>
	<polygon fill="#F6B73A" points="154.566,188 73.434,188 64.021,84.453 73.979,83.547 82.566,178 145.434,178 154.021,83.547 
		163.979,84.453 	"/>
</g>
<g>
	<polygon fill="#F6B73A" points="190.336,179 163,179 163,125 159,125 159,115 173,115 173,169 181.664,169 189.631,113.224 
		156.649,88.487 127,78.604 127,71 101,71 101,78.604 71.351,88.487 38.369,113.224 46.336,169 55,169 55,115 69,115 69,125 65,125 
		65,179 37.664,179 27.631,108.776 66.649,79.513 91,71.396 91,61 137,61 137,71.396 161.351,79.513 200.369,108.776 	"/>
</g>
<g>
	<path fill="#F6B73A" d="M137,53H91v-5c0-12.682,10.318-23,23-23s23,10.318,23,23V53z M102,43h24c-1.963-4.694-6.603-8-12-8
		S103.963,38.306,102,43z"/>
</g>
<g>
	<rect x="132" y="43" fill="#F6B73A" width="18" height="10"/>
</g>
<g>
	<polygon fill="#F6B73A" points="114,116.385 67.143,97.643 70.857,88.357 114,105.615 157.143,88.357 160.857,97.643 	"/>
</g>
<g>
	<polygon fill="#F6B73A" points="114,125.385 67.143,106.643 70.857,97.357 114,114.615 157.143,97.357 160.857,106.643 	"/>
</g>
<g>
	<polygon fill="#F6B73A" points="114,152.385 71.387,135.34 75.101,126.055 114,141.615 152.898,126.056 156.612,135.341 	"/>
</g>
<g>
	<polygon fill="#F6B73A" points="114,161.385 72.24,144.682 75.954,135.396 114,150.615 152.047,135.395 155.761,144.68 	"/>
</g>
<g>
	<g>
		<path fill="#F6B73A" d="M328.864,105.883h-0.385l-13.004,37.244h-8.618l-13.004-37.244h-0.385l-3.002,37.628H276l5.694-63.483
			h15.391l14.082,36.628l14.082-36.628h15.39l5.694,63.483h-14.467L328.864,105.883z"/>
	</g>
	<g>
		<path fill="#F6B73A" d="M369.82,102.882c5.31,0,9.696,1.77,12.928,4.925v-3.771h13.62v39.476h-13.466v-4.463h-0.154
			c-2.924,3.232-7.541,5.617-12.928,5.617c-11.542,0-19.622-9.312-19.622-20.854S358.278,102.882,369.82,102.882z M373.899,133.047
			c5.309,0,9.157-3.848,9.157-9.234c0-5.463-4.079-9.311-9.157-9.311c-5.156,0-9.234,3.848-9.234,9.311
			C364.665,129.199,368.357,133.047,373.899,133.047z"/>
	</g>
	<g>
		<path fill="#F6B73A" d="M420.262,102.882c5.311,0,9.697,1.77,12.928,4.925V77.334h13.621v66.177h-13.466v-4.463h-0.155
			c-2.923,3.232-7.54,5.617-12.928,5.617c-11.541,0-19.621-9.312-19.621-20.854S408.721,102.882,420.262,102.882z M424.341,133.047
			c5.311,0,9.158-3.848,9.158-9.234c0-5.463-4.079-9.311-9.158-9.311c-5.156,0-9.234,3.848-9.234,9.311
			C415.106,129.199,418.8,133.047,424.341,133.047z"/>
	</g>
	<g>
		<path fill="#F6B73A" d="M465.104,125.66c0,6.078,5.078,8.156,8.541,8.156c4.386,0,6.309-0.847,9.618-4.387l9.85,4.925
			c-4.463,7.464-11.696,10.312-20.468,10.312c-11.928,0-21.7-9.389-21.7-20.854c0-11.542,9.772-20.93,21.7-20.93
			c12.003,0,21.161,7.08,21.161,20.93c0,0.539,0,1.385-0.078,1.848H465.104z M480.493,118.118c-0.615-4.155-3.462-6.387-7.463-6.387
			c-4.693,0-7.311,2.771-7.541,6.387H480.493z"/>
	</g>
	<g>
		<path fill="#F6B73A" d="M536.275,87.723c0,4.463-3.616,8.08-8.079,8.08s-8.08-3.617-8.08-8.08s3.617-8.08,8.08-8.08
			S536.275,83.26,536.275,87.723z M521.193,143.512h13.621v-39.476h-13.621V143.512z"/>
	</g>
	<g>
		<path fill="#F6B73A" d="M541.59,104.036h13.62v4.156h0.154c3.078-3.079,7.002-5.31,11.312-5.31
			c7.232,0,17.313,3.616,17.313,14.621v26.009h-13.621v-22.315c0-3.925-2.692-7.694-7.078-7.694c-4.078,0-8.08,3.77-8.08,7.694
			v22.315h-13.62V104.036z"/>
	</g>
	<g>
		<path fill="#F6B73A" d="M627.92,130.814h21.855v12.697h-36.321V80.028h14.466V130.814z"/>
	</g>
	<g>
		<path fill="#F6B73A" d="M667.131,125.66c0,6.078,5.078,8.156,8.541,8.156c4.387,0,6.311-0.847,9.618-4.387l9.851,4.925
			c-4.463,7.464-11.697,10.312-20.469,10.312c-11.928,0-21.7-9.389-21.7-20.854c0-11.542,9.772-20.93,21.7-20.93
			c12.004,0,21.161,7.08,21.161,20.93c0,0.539,0,1.385-0.077,1.848H667.131z M682.521,118.118c-0.615-4.155-3.463-6.387-7.465-6.387
			c-4.693,0-7.311,2.771-7.541,6.387H682.521z"/>
	</g>
	<g>
		<path fill="#F6B73A" d="M727.855,143.512l-8.696-11.158l-8.694,11.158h-16.468l16.853-20.623l-14.467-18.853h15.928l6.849,9.157
			l6.85-9.157h15.929l-14.467,18.853l16.852,20.623H727.855z"/>
	</g>
	<g>
		<path fill="#F6B73A" d="M763.663,135.894c0,4.849-3.925,8.772-8.85,8.772c-4.848,0-8.772-3.924-8.772-8.772
			c0-4.925,3.925-8.849,8.772-8.849C759.738,127.045,763.663,130.969,763.663,135.894z"/>
	</g>
</g>
<g>
	<path fill="#F6B73A" d="M96,48h18V30C104.059,30,96,38.059,96,48z"/>
</g>
</svg>
