<?xml version="1.0" encoding="utf-8"?>
<!-- Generator: Adobe Illustrator 16.0.4, SVG Export Plug-In . SVG Version: 6.00 Build 0)  -->
<!DOCTYPE svg PUBLIC "-//W3C//DTD SVG 1.1//EN" "http://www.w3.org/Graphics/SVG/1.1/DTD/svg11.dtd">
<svg version="1.1" id="Layer_1" xmlns="http://www.w3.org/2000/svg" xmlns:xlink="http://www.w3.org/1999/xlink" x="0px" y="0px"
	 width="488.664px" height="345px" viewBox="0 0 488.664 345" enable-background="new 0 0 488.664 345" xml:space="preserve">
<g>
	<polygon fill="#F6B73A" points="49.249,278.826 35.167,315.454 21.085,278.826 5.694,278.826 0,342.309 14.467,342.309 
		17.469,304.68 17.854,304.68 30.857,341.924 39.476,341.924 52.479,304.68 52.864,304.68 55.866,342.309 70.333,342.309 
		64.639,278.826 	"/>
	<path fill="#F6B73A" d="M105.747,306.604c-3.231-3.153-7.618-4.924-12.928-4.924c-11.542,0-19.622,9.389-19.622,20.93
		c0,11.543,8.08,20.854,19.622,20.854c5.387,0,10.004-2.385,12.928-5.616h0.154v4.463h13.466v-39.477h-13.62V306.604z
		 M96.898,331.844c-5.542,0-9.234-3.848-9.234-9.234c0-5.463,4.078-9.311,9.234-9.311c5.078,0,9.157,3.848,9.157,9.311
		C106.056,327.997,102.207,331.844,96.898,331.844z"/>
	<path fill="#F6B73A" d="M157.189,306.604c-3.23-3.153-7.617-4.924-12.928-4.924c-11.541,0-19.621,9.389-19.621,20.93
		c0,11.543,8.08,20.854,19.621,20.854c5.388,0,10.005-2.385,12.928-5.616h0.155v4.463h13.466v-66.179h-13.621V306.604z
		 M148.341,331.844c-5.541,0-9.234-3.848-9.234-9.234c0-5.463,4.078-9.311,9.234-9.311c5.079,0,9.158,3.848,9.158,9.311
		C157.499,327.997,153.651,331.844,148.341,331.844z"/>
	<path fill="#F6B73A" d="M197.646,301.68c-11.928,0-21.7,9.389-21.7,20.93c0,11.466,9.772,20.854,21.7,20.854
		c8.771,0,16.005-2.848,20.468-10.312l-9.85-4.926c-3.31,3.541-5.232,4.388-9.618,4.388c-3.463,0-8.541-2.078-8.541-8.156h28.624
		c0.078-0.463,0.078-1.31,0.078-1.849C218.808,308.759,209.649,301.68,197.646,301.68z M190.49,316.916
		c0.23-3.616,2.848-6.387,7.541-6.387c4.001,0,6.848,2.23,7.463,6.387H190.49z"/>
	<circle fill="#F6B73A" cx="253.197" cy="286.52" r="8.08"/>
	<rect x="246.193" y="302.833" fill="#F6B73A" width="13.621" height="39.476"/>
	<path fill="#F6B73A" d="M292.678,301.68c-4.31,0-8.232,2.23-11.312,5.31h-0.154v-4.155h-13.62v39.477h13.62v-22.315
		c0-3.925,4.002-7.694,8.08-7.694c4.386,0,7.078,3.77,7.078,7.694v22.315h13.621V316.3
		C309.991,305.295,299.91,301.68,292.678,301.68z"/>
	<polygon fill="#F6B73A" points="353.922,278.826 339.456,278.826 339.456,342.309 375.777,342.309 375.777,329.611 
		353.922,329.611 	"/>
	<path fill="#F6B73A" d="M410.291,328.227c-3.308,3.541-5.231,4.388-9.618,4.388c-3.463,0-8.541-2.078-8.541-8.156h28.625
		c0.077-0.463,0.077-1.31,0.077-1.849c0-13.851-9.157-20.93-21.161-20.93c-11.928,0-21.7,9.389-21.7,20.93
		c0,11.466,9.772,20.854,21.7,20.854c8.771,0,16.006-2.848,20.469-10.312L410.291,328.227z M400.058,310.529
		c4.003,0,6.851,2.23,7.466,6.387h-15.007C392.747,313.299,395.364,310.529,400.058,310.529z"/>
	<polygon fill="#F6B73A" points="466.938,302.833 451.01,302.833 444.16,311.991 437.312,302.833 421.384,302.833 435.851,321.686 
		418.998,342.309 435.466,342.309 444.16,331.15 452.855,342.309 469.323,342.309 452.472,321.686 	"/>
	<path fill="#F6B73A" d="M479.814,325.842c-4.849,0-8.772,3.924-8.772,8.85c0,4.849,3.925,8.771,8.772,8.771
		c4.925,0,8.85-3.924,8.85-8.771C488.664,329.766,484.739,325.842,479.814,325.842z"/>
	<path fill="#F6B73A" d="M328.867,30.464C309.979,11.576,281.538,2,244.332,2s-65.648,9.577-84.536,28.464
		C140.908,49.351,131.332,77.793,131.332,115s9.577,65.646,28.464,84.535C178.683,218.423,207.126,228,244.332,228
		s65.646-9.577,84.535-28.465c18.888-18.889,28.465-47.329,28.465-84.535S347.755,49.352,328.867,30.464z M244.332,218
		c-69.309,0-103-33.691-103-103c0-69.309,33.691-103,103-103c69.309,0,103,33.691,103,103C347.332,184.309,313.641,218,244.332,218z
		"/>
	<path fill="#F6B73A" d="M291.684,81.519l-24.352-8.117V63.005h-46v10.396l-24.351,8.117l-39.018,29.263l10.032,70.224h27.336v-54
		h2.707l5.728,63h81.132l5.728-63h2.706v54h27.337l10.031-70.224L291.684,81.519z M280.385,129.2l-36.053,14.42l-36.053-14.421
		l-1.531-16.842l37.584,15.034l37.584-15.033L280.385,129.2z M231.332,80.609v-7.604h26v7.604l26.662,8.887l-0.213,2.344
		l-39.449,15.78l-39.449-15.78l-0.213-2.344L231.332,80.609z M185.332,117.005v54h-8.664l-7.968-55.776l26.463-19.847l1.966,21.624
		L185.332,117.005L185.332,117.005z M212.898,180.005l-2.753-30.29l34.188,13.675l34.188-13.676l-2.754,30.291H212.898z
		 M311.995,171.005h-8.663v-54h-11.798l1.966-21.624l26.464,19.848L311.995,171.005z"/>
	<path fill="#F6B73A" d="M267.332,55.005h13v-10h-13.555c-2.289-10.285-11.48-18-22.445-18c-12.682,0-23,10.318-23,23v5h41H267.332z
		 M244.332,45.005v-8c5.396,0,10.037,3.306,12,8H244.332z"/>
</g>
</svg>
