<?xml version="1.0" encoding="utf-8"?>
<!-- Generator: Adobe Illustrator 16.0.4, SVG Export Plug-In . SVG Version: 6.00 Build 0)  -->
<!DOCTYPE svg PUBLIC "-//W3C//DTD SVG 1.1//EN" "http://www.w3.org/Graphics/SVG/1.1/DTD/svg11.dtd">
<svg version="1.1" id="Layer_1" xmlns="http://www.w3.org/2000/svg" xmlns:xlink="http://www.w3.org/1999/xlink" x="0px" y="0px"
	 width="487.663px" height="341.463px" viewBox="-0.359 0 487.663 341.463" enable-background="new -0.359 0 487.663 341.463"
	 xml:space="preserve">
<g>
	<g>
		<g>
			<path fill="#F6B73A" d="M52.505,302.681H52.12l-13.004,37.243h-8.618l-13.004-37.243h-0.385l-3.002,37.628H-0.359l5.694-63.482
				h15.391l14.082,36.628l14.082-36.628h15.39l5.694,63.482H55.507L52.505,302.681z"/>
		</g>
	</g>
	<g>
		<g>
			<path fill="#F6B73A" d="M93.461,299.68c5.31,0,9.696,1.77,12.928,4.925v-3.771h13.62v39.475h-13.466v-4.463h-0.154
				c-2.924,3.232-7.541,5.617-12.928,5.617c-11.542,0-19.622-9.311-19.622-20.854C73.839,309.068,81.919,299.68,93.461,299.68z
				 M97.54,329.844c5.309,0,9.157-3.848,9.157-9.234c0-5.463-4.079-9.311-9.157-9.311c-5.156,0-9.234,3.848-9.234,9.311
				C88.306,325.996,91.998,329.844,97.54,329.844z"/>
		</g>
	</g>
	<g>
		<g>
			<path fill="#F6B73A" d="M143.902,299.68c5.311,0,9.697,1.77,12.928,4.925v-30.473h13.621v66.177h-13.466v-4.463h-0.155
				c-2.923,3.232-7.54,5.617-12.928,5.617c-11.541,0-19.621-9.311-19.621-20.854C124.281,309.068,132.361,299.68,143.902,299.68z
				 M147.981,329.844c5.311,0,9.158-3.848,9.158-9.234c0-5.463-4.079-9.311-9.158-9.311c-5.156,0-9.234,3.848-9.234,9.311
				C138.747,325.996,142.44,329.844,147.981,329.844z"/>
		</g>
	</g>
	<g>
		<g>
			<path fill="#F6B73A" d="M188.745,322.457c0,6.079,5.078,8.156,8.541,8.156c4.386,0,6.309-0.846,9.618-4.386l9.85,4.925
				c-4.463,7.464-11.696,10.311-20.468,10.311c-11.928,0-21.7-9.388-21.7-20.854c0-11.541,9.772-20.93,21.7-20.93
				c12.003,0,21.161,7.08,21.161,20.93c0,0.539,0,1.386-0.078,1.848H188.745z M204.134,314.916
				c-0.615-4.156-3.462-6.387-7.463-6.387c-4.693,0-7.311,2.77-7.541,6.387H204.134z"/>
		</g>
	</g>
	<g>
		<g>
			<path fill="#F6B73A" d="M259.916,284.521c0,4.463-3.616,8.079-8.079,8.079s-8.08-3.616-8.08-8.079s3.617-8.08,8.08-8.08
				S259.916,280.058,259.916,284.521z M244.834,340.309h13.621v-39.475h-13.621V340.309z"/>
		</g>
	</g>
	<g>
		<g>
			<path fill="#F6B73A" d="M265.23,300.834h13.62v4.155h0.154c3.078-3.079,7.002-5.31,11.312-5.31
				c7.232,0,17.313,3.616,17.313,14.621v26.008h-13.621v-22.314c0-3.925-2.692-7.695-7.078-7.695c-4.078,0-8.08,3.771-8.08,7.695
				v22.314h-13.62V300.834z"/>
		</g>
	</g>
	<g>
		<g>
			<path fill="#F6B73A" d="M351.561,327.612h21.855v12.696h-36.321v-63.482h14.466V327.612z"/>
		</g>
	</g>
	<g>
		<g>
			<path fill="#F6B73A" d="M390.771,322.457c0,6.079,5.078,8.156,8.541,8.156c4.387,0,6.311-0.846,9.618-4.386l9.851,4.925
				c-4.463,7.464-11.697,10.311-20.469,10.311c-11.928,0-21.7-9.388-21.7-20.854c0-11.541,9.772-20.93,21.7-20.93
				c12.004,0,21.161,7.08,21.161,20.93c0,0.539,0,1.386-0.077,1.848H390.771z M406.162,314.916
				c-0.615-4.156-3.463-6.387-7.465-6.387c-4.693,0-7.311,2.77-7.541,6.387H406.162z"/>
		</g>
	</g>
	<g>
		<g>
			<path fill="#F6B73A" d="M451.496,340.309l-8.696-11.157l-8.694,11.157h-16.468l16.853-20.622l-14.467-18.853h15.928l6.849,9.156
				l6.85-9.156h15.929l-14.467,18.853l16.852,20.622H451.496z"/>
		</g>
	</g>
	<g>
		<g>
			<path fill="#F6B73A" d="M487.304,332.691c0,4.848-3.925,8.771-8.85,8.771c-4.848,0-8.772-3.924-8.772-8.771
				c0-4.926,3.925-8.85,8.772-8.85C483.379,323.842,487.304,327.766,487.304,332.691z"/>
		</g>
	</g>
</g>
<g>
	<g>
		<path fill="#F6B73A" d="M243.472,226c-37.206,0-65.648-9.577-84.536-28.465S130.472,150.206,130.472,113
			s9.577-65.648,28.464-84.536S206.266,0,243.472,0c37.207,0,65.648,9.577,84.536,28.464s28.465,47.33,28.465,84.536
			s-9.577,65.647-28.465,84.535S280.679,226,243.472,226z M243.472,10c-69.309,0-103,33.691-103,103s33.691,103,103,103
			c69.309,0,103-33.691,103-103S312.781,10,243.472,10z"/>
	</g>
	<g>
		<polygon fill="#F6B73A" points="284.039,188.006 202.906,188.006 193.493,84.458 203.452,83.553 212.038,178.006 274.906,178.006 
			283.493,83.553 293.452,84.458 		"/>
	</g>
	<g>
		<polygon fill="#F6B73A" points="319.81,179.006 292.473,179.006 292.473,125.006 288.473,125.006 288.473,115.006 
			302.473,115.006 302.473,169.006 311.136,169.006 319.104,113.229 286.122,88.493 256.473,78.61 256.473,71.006 230.472,71.006 
			230.472,78.61 200.823,88.493 167.841,113.229 175.809,169.006 184.472,169.006 184.472,115.006 198.472,115.006 198.472,125.006 
			194.472,125.006 194.472,179.006 167.136,179.006 157.104,108.782 196.121,79.519 220.472,71.402 220.472,61.006 266.473,61.006 
			266.473,71.402 290.823,79.519 329.841,108.782 		"/>
	</g>
	<g>
		<path fill="#F6B73A" d="M266.473,53.006h-46v-5c0-12.682,10.318-23,23-23s23,10.318,23,23V53.006z M231.472,43.006h24
			c-1.963-4.694-6.603-8-12-8C238.075,35.006,233.435,38.312,231.472,43.006z"/>
	</g>
	<g>
		<rect x="261.473" y="43.006" fill="#F6B73A" width="18" height="10"/>
	</g>
	<g>
		<polygon fill="#F6B73A" points="243.472,116.391 196.615,97.648 200.329,88.363 243.472,105.621 286.616,88.363 290.329,97.648 		
			"/>
	</g>
	<g>
		<polygon fill="#F6B73A" points="243.472,125.391 196.615,106.648 200.329,97.363 243.472,114.621 286.616,97.363 290.329,106.648 
					"/>
	</g>
	<g>
		<polygon fill="#F6B73A" points="243.472,152.391 200.859,135.346 204.573,126.061 243.472,141.621 282.37,126.062 
			286.083,135.348 		"/>
	</g>
	<g>
		<polygon fill="#F6B73A" points="243.472,161.391 201.712,144.688 205.426,135.402 243.472,150.621 281.52,135.4 285.234,144.686 
					"/>
	</g>
	<g>
		<path fill="#F6B73A" d="M225.472,48.006h18v-18C233.532,30.006,225.472,38.064,225.472,48.006z"/>
	</g>
</g>
</svg>
