<?xml version="1.0" encoding="utf-8"?>
<!-- Generator: Adobe Illustrator 16.0.4, SVG Export Plug-In . SVG Version: 6.00 Build 0)  -->
<!DOCTYPE svg PUBLIC "-//W3C//DTD SVG 1.1//EN" "http://www.w3.org/Graphics/SVG/1.1/DTD/svg11.dtd">
<svg version="1.1" id="Layer_1" xmlns="http://www.w3.org/2000/svg" xmlns:xlink="http://www.w3.org/1999/xlink" x="0px" y="0px"
	 width="768.667px" height="226px" viewBox="-2.002 0 768.667 226" enable-background="new -2.002 0 768.667 226"
	 xml:space="preserve">
<g>
	<path fill="#F6B73A" d="M113,0C75.794,0,47.352,9.577,28.464,28.464S0,75.794,0,113s9.577,65.648,28.464,84.535
		C47.352,216.424,75.794,226,113,226s65.648-9.576,84.536-28.465C216.423,178.648,226,150.206,226,113s-9.577-65.648-28.464-84.536
		S150.206,0,113,0z M113,216c-69.309,0-103-33.691-103-103S43.691,10,113,10s103,33.691,103,103S182.309,216,113,216z"/>
	<path fill="#F6B73A" d="M136,71.403V61.007H90v10.396L65.649,79.52l-39.018,29.263l10.032,70.224H64v-54h2.707l5.728,63h81.132
		l5.728-63H162v54h27.336l10.032-70.224L160.351,79.52L136,71.403z M149.053,127.201L113,141.621L76.947,127.2l-1.531-16.842
		L113,125.393l37.584-15.034L149.053,127.201z M100,78.611v-7.604h26v7.604l26.662,8.887l-0.213,2.344L113,105.622l-39.449-15.78
		l-0.213-2.344L100,78.611z M54,115.007v54h-8.664l-7.968-55.776l26.463-19.847l1.966,21.624H54z M81.566,178.007l-2.753-30.29
		L113,161.393l34.188-13.676l-2.753,30.29H81.566z M180.664,169.007H172v-54h-11.798l1.966-21.624l26.463,19.847L180.664,169.007z"
		/>
	<path fill="#F6B73A" d="M136,53.007h13v-10h-13.554c-2.29-10.285-11.481-18-22.446-18c-12.682,0-23,10.318-23,23v5h41H136z
		 M113,43.007v-8c5.397,0,10.037,3.306,12,8H113z"/>
	<polygon fill="#F6B73A" points="322.979,81.551 309.261,117.235 295.542,81.551 280.548,81.551 275,143.398 289.094,143.398 
		292.018,106.739 292.393,106.739 305.062,143.023 313.458,143.023 326.127,106.739 326.502,106.739 329.427,143.398 
		343.521,143.398 337.973,81.551 	"/>
	<path fill="#F6B73A" d="M378.148,108.614c-3.148-3.074-7.421-4.798-12.594-4.798c-11.245,0-19.116,9.146-19.116,20.39
		c0,11.246,7.871,20.316,19.116,20.316c5.248,0,9.746-2.324,12.594-5.473h0.15v4.349h13.119V104.94h-13.27V108.614z
		 M369.528,133.203c-5.398,0-8.996-3.749-8.996-8.997c0-5.322,3.973-9.07,8.996-9.07c4.947,0,8.921,3.748,8.921,9.07
		C378.449,129.454,374.701,133.203,369.528,133.203z"/>
	<path fill="#F6B73A" d="M429.346,108.614c-3.147-3.074-7.421-4.798-12.594-4.798c-11.245,0-19.116,9.146-19.116,20.39
		c0,11.246,7.871,20.316,19.116,20.316c5.248,0,9.746-2.324,12.594-5.473h0.15v4.349h13.12V78.927h-13.271V108.614z
		 M420.726,133.203c-5.398,0-8.996-3.749-8.996-8.997c0-5.322,3.973-9.07,8.996-9.07c4.947,0,8.921,3.748,8.921,9.07
		C429.646,129.454,425.898,133.203,420.726,133.203z"/>
	<path fill="#F6B73A" d="M469.974,103.816c-11.62,0-21.141,9.146-21.141,20.39c0,11.171,9.521,20.316,21.141,20.316
		c8.546,0,15.594-2.773,19.941-10.045l-9.596-4.799c-3.224,3.449-5.098,4.273-9.371,4.273c-3.374,0-8.321-2.023-8.321-7.945h27.888
		c0.075-0.451,0.075-1.275,0.075-1.801C490.59,110.713,481.668,103.816,469.974,103.816z M463.002,118.659
		c0.225-3.523,2.774-6.222,7.347-6.222c3.898,0,6.672,2.173,7.271,6.222H463.002z"/>
	<circle fill="#F6B73A" cx="524.094" cy="89.047" r="7.871"/>
	<rect x="517.271" y="104.94" fill="#F6B73A" width="13.269" height="38.458"/>
	<path fill="#F6B73A" d="M564.348,103.816c-4.198,0-8.021,2.174-11.02,5.172h-0.15v-4.048h-13.27v38.458h13.27v-21.741
		c0-3.822,3.898-7.496,7.871-7.496c4.273,0,6.896,3.674,6.896,7.496v21.741h13.27V118.06
		C581.215,107.339,571.395,103.816,564.348,103.816z"/>
	<polygon fill="#F6B73A" points="624.015,81.551 609.921,81.551 609.921,143.398 645.306,143.398 645.306,131.028 624.015,131.028 	
		"/>
	<path fill="#F6B73A" d="M670.639,103.816c-11.619,0-21.141,9.146-21.141,20.39c0,11.171,9.521,20.316,21.141,20.316
		c8.547,0,15.594-2.773,19.941-10.045l-9.596-4.799c-3.223,3.449-5.098,4.273-9.371,4.273c-3.373,0-8.32-2.023-8.32-7.945h27.887
		c0.075-0.451,0.075-1.275,0.075-1.801C691.255,110.713,682.334,103.816,670.639,103.816z M663.668,118.659
		c0.225-3.523,2.773-6.222,7.346-6.222c3.898,0,6.673,2.173,7.272,6.222H663.668z"/>
	<polygon fill="#F6B73A" points="739.68,104.94 724.161,104.94 717.488,113.86 710.817,104.94 695.299,104.94 709.393,123.308 
		692.975,143.398 709.018,143.398 717.488,132.528 725.961,143.398 742.004,143.398 725.586,123.308 	"/>
	<path fill="#F6B73A" d="M755.043,127.355c-4.723,0-8.547,3.823-8.547,8.621c0,4.724,3.824,8.546,8.547,8.546
		c4.798,0,8.621-3.822,8.621-8.546C763.664,131.179,759.841,127.355,755.043,127.355z"/>
</g>
</svg>
